<?xml version="1.0" standalone="no"?><!DOCTYPE svg PUBLIC "-//W3C//DTD SVG 1.1//EN" "http://www.w3.org/Graphics/SVG/1.1/DTD/svg11.dtd"><svg t="1622123405608" class="icon" viewBox="0 0 1024 1024" version="1.1" xmlns="http://www.w3.org/2000/svg" p-id="9400" xmlns:xlink="http://www.w3.org/1999/xlink" width="200" height="200"><defs><style type="text/css"></style></defs><path d="M512 0C229.262222 0 0 229.262222 0 512s229.262222 512 512 512 512-229.262222 512-512S794.737778 0 512 0z m0 937.130667C277.248 937.130667 86.869333 746.752 86.869333 512S277.248 86.869333 512 86.869333 937.130667 277.248 937.130667 512 746.752 937.130667 512 937.130667z m54.499556-451.640889l-29.013334-6.741334v-153.486222c43.434667 5.944889 70.286222 33.137778 74.865778 66.503111 0.568889 4.551111 4.437333 7.879111 9.016889 7.879111h51.313778a9.244444 9.244444 0 0 0 9.159111-10.040888c-6.997333-71.196444-65.621333-116.906667-143.900445-124.814223V227.441778a9.159111 9.159111 0 0 0-9.130666-9.159111h-32.142223a9.159111 9.159111 0 0 0-9.102222 9.159111V265.102222c-80.924444 7.907556-144.241778 52.593778-144.241778 136.021334 0 77.255111 56.888889 114.517333 116.679112 128.796444l28.216888 7.196444v163.072c-50.517333-6.741333-78.848-33.706667-84.679111-70.058666a9.102222 9.102222 0 0 0-9.016889-7.537778h-52.821333a9.159111 9.159111 0 0 0-9.130667 9.955556c5.12 62.862222 52.792889 120.689778 154.510223 128.113777v35.896889c0 5.006222 4.124444 9.102222 9.159111 9.102222h32.426666a9.187556 9.187556 0 0 0 9.159112-9.244444l-0.227556-36.209778c89.486222-7.879111 153.486222-55.751111 153.486222-141.710222-0.113778-79.331556-50.517333-114.744889-124.586666-133.034667z m-78.392889-18.517334a167.537778 167.537778 0 0 1-17.123556-5.688888c-38.627556-13.966222-56.604444-36.494222-56.604444-65.507556 0-41.500444 31.459556-65.137778 73.728-70.542222v141.738666z m49.379555 233.585778v-152.775111c3.527111 1.024 6.741333 1.820444 10.069334 2.503111 54.044444 16.469333 72.220444 39.310222 72.220444 74.410667 0 44.657778-33.592889 71.537778-82.289778 75.889778z" p-id="9401"></path></svg>